<?xml version="1.0" encoding="UTF-8"?>
<!DOCTYPE svg PUBLIC "-//W3C//DTD SVG 1.1//EN" "http://www.w3.org/Graphics/SVG/1.1/DTD/svg11.dtd">
<!-- Creator: CorelDRAW -->
<svg xmlns="http://www.w3.org/2000/svg" xml:space="preserve" width="4.8578mm" height="4.8578mm" style="shape-rendering:geometricPrecision; text-rendering:geometricPrecision; image-rendering:optimizeQuality; fill-rule:evenodd; clip-rule:evenodd"
viewBox="0 0 4.8578 4.8578"
 xmlns:xlink="http://www.w3.org/1999/xlink">
 <defs>
  <style type="text/css">
   <![CDATA[
    .fil0 {fill:black}
   ]]>
  </style>
 </defs>
 <g id="Слой_x0020_1">
  <metadata id="CorelCorpID_0Corel-Layer"/>
  <g id="_111877728">
   <g>
    <g>
     <g>
      <path id="_111878160" class="fil0" d="M3.3594 3.4763c-0.0299,0 -0.0598,-0.0114 -0.0826,-0.0343l-1.861 -1.861c-0.0456,-0.0456 -0.0456,-0.1196 0,-0.1652 0.0457,-0.0457 0.1196,-0.0457 0.1652,0l1.861 1.861c0.0457,0.0456 0.0457,0.1196 0,0.1652 -0.0228,0.0229 -0.0527,0.0343 -0.0826,0.0343z"/>
      <path id="_111878304" class="fil0" d="M1.4984 3.4763c-0.0299,0 -0.0597,-0.0114 -0.0826,-0.0343 -0.0456,-0.0456 -0.0456,-0.1196 0,-0.1652l1.861 -1.861c0.0456,-0.0457 0.1196,-0.0457 0.1652,0 0.0456,0.0456 0.0456,0.1196 0,0.1652l-1.861 1.861c-0.0228,0.0229 -0.0527,0.0343 -0.0826,0.0343z"/>
     </g>
     <path id="_111878520" class="fil0" d="M2.4292 4.8578l0 -0.1169 -0.0002 0.1169c-1.3392,0 -2.4289,-1.0896 -2.429,-2.4289 0,-1.3393 1.0896,-2.4289 2.4289,-2.4289 1.3393,0 2.4289,1.0896 2.4289,2.4289 0,1.3393 -1.0895,2.4289 -2.4286,2.4289zm-0.0003 -4.6241c-1.2105,0 -2.1952,0.9848 -2.1952,2.1952 0.0001,1.2104 0.9849,2.1952 2.1953,2.1952l0.0002 0c1.2102,0 2.1949,-0.9847 2.1949,-2.1952 0,-1.2104 -0.9848,-2.1952 -2.1952,-2.1952z"/>
    </g>
   </g>
  </g>
 </g>
</svg>
